<svg xmlns="http://www.w3.org/2000/svg" viewBox="0 0 420 72" fill="none" role="img" aria-label="Heritage InfoTech">
  <defs>
    <linearGradient id="markGradLight" x1="0" y1="0" x2="52" y2="52" gradientUnits="userSpaceOnUse">
      <stop stop-color="#0092c1"/>
      <stop offset="1" stop-color="#00627b"/>
    </linearGradient>
  </defs>
  <rect x="0" y="6" width="60" height="60" rx="12" fill="url(#markGradLight)"/>
  <path d="M17 48V24h6.5c2.8 0 4.8 1.6 4.8 4.2 0 1.8-1 3.1-2.5 3.8L31 48h-3.9l-3-7.8H21.5V48H17zm3.8-11h3c1.5 0 2.4-.7 2.4-2 0-1.3-.9-2-2.4-2h-3v4zM33 48V24h4l6 15.5L49 24h4.2v24H49V36.2l-6.1 13.6h-2.4L34.4 36.2V48H33z" fill="#fff"/>
  <circle cx="37.5" cy="32" r="2.5" fill="#e6f7fc"/>
  <circle cx="45" cy="39" r="2" fill="#e6f7fc" opacity="0.85"/>
  <text x="76" y="34" fill="#0f172a" font-family="system-ui, -apple-system, 'Segoe UI', sans-serif" font-size="26" font-weight="700" letter-spacing="-0.02em">Heritage</text>
  <text x="198" y="34" fill="#0092c1" font-family="system-ui, -apple-system, 'Segoe UI', sans-serif" font-size="26" font-weight="700" letter-spacing="-0.02em">InfoTech</text>
  <text x="76" y="56" fill="#007a9e" font-family="system-ui, -apple-system, 'Segoe UI', sans-serif" font-size="11" font-weight="600" letter-spacing="0.16em">INNOVATE · COLLABORATE · DELIVER</text>
  <line x1="76" y1="62" x2="344" y2="62" stroke="#b3e6f5" stroke-width="1"/>
</svg>