<svg xmlns="http://www.w3.org/2000/svg" viewBox="0 0 64 64" fill="none" role="img" aria-label="Heritage InfoTech mark">
  <defs>
    <linearGradient id="grad" x1="4" y1="4" x2="60" y2="60" gradientUnits="userSpaceOnUse">
      <stop stop-color="#26b5e0"/>
      <stop offset="1" stop-color="#007a9e"/>
    </linearGradient>
  </defs>
  <rect x="4" y="4" width="56" height="56" rx="12" fill="url(#grad)"/>
  <path d="M18 46V18h6.5c3 0 5.1 1.6 5.1 4.2 0 1.8-1 3.1-2.5 3.8L31.5 46h-3.9l-3-7.8H22.5V46H18zm3.8-11h3c1.5 0 2.4-.7 2.4-2 0-1.3-.9-2-2.4-2h-3v4zM34 46V18h4l6 15.5L50 18h4.2v28H50V34.2l-6.1 13.6h-2.4L35.4 34.2V46H34z" fill="#fff"/>
  <circle cx="38.5" cy="30" r="2.5" fill="#e6f7fc"/>
  <circle cx="46" cy="37" r="2" fill="#e6f7fc" opacity="0.85"/>
</svg>